Simulation
nRows=43
nColumns=15
endheader
time  TH_x TH_y TH_z SC_y  SC_z  SC_x  AC_y  AC_z  AC_x  GH_y  GH_z  GH_yy  EL_x  PS_y
0.0  0.000000  0.000000  0.000000  -27.97009713762862  4.560559826388393  1.8095281903341822  43.07589636276478  6.286036958807698  -1.7677518396292253  126.71910218272886  4.095173588029715  -81.44898261834078  20.500144320271033  120.000000
0.031799999999999995  0.000000  0.000000  0.000000  -27.807835412811762  4.704971329583203  1.851371411119154  43.0152215236784  6.361137277651197  -1.716459652051171  129.26808178701557  3.667118168266892  -83.82388153973926  20.654750735766363  120.000000
0.06359999999999999  0.000000  0.000000  0.000000  -27.625597070756818  4.825950478067846  1.8869328060430437  42.97119432576107  6.382827436728274  -1.6454642592392053  132.2753681923785  3.3474721505052902  -86.65230586272597  20.829408035568967  120.000000
0.09539999999999998  0.000000  0.000000  0.000000  -27.44366919076454  4.929328752883275  1.9145378890975644  42.93988101947401  6.365225843526131  -1.568609577867003  135.30853891296957  3.148952356630173  -89.5206488301314  21.001527507904633  120.000000
0.12719999999999998  0.000000  0.000000  0.000000  -27.275327484923068  5.0250473572052  1.933784994507906  42.917758804889786  6.322117474913383  -1.4958654315016524  137.92189298269662  3.0632992117051168  -91.99969353157748  21.1528934260127  120.000000
0.15899999999999997  0.000000  0.000000  0.000000  -27.12898890593549  5.113505811732946  1.9461405857490763  42.89877970669412  6.2663333583162535  -1.435002192507651  139.83868008523964  3.065198056852101  -93.82890428766383  21.26274792896246  120.000000
0.19079999999999997  0.000000  0.000000  0.000000  -27.007057418337926  5.194071587072285  1.9537029904311678  42.88001848667277  6.205742623820726  -1.3887756352030403  141.0167820538242  3.1240328885089905  -94.97708835117969  21.317703589541328  120.000000
0.22259999999999996  0.000000  0.000000  0.000000  -26.90710106294378  5.262974082832074  1.9577294443179916  42.86236250050554  6.14322429323497  -1.3560718918971713  141.55033385462482  3.2105683178542197  -95.54614705990612  21.307416600777003  120.000000
0.25439999999999996  0.000000  0.000000  0.000000  -26.824985385887228  5.315506590027432  1.9580090516526418  42.85039835929626  6.077927732560965  -1.332990701047644  141.55292014173364  3.2999642897748784  -95.65472060176607  21.22516965752817  120.000000
0.28619999999999995  0.000000  0.000000  0.000000  -26.756125358209577  5.349038189144038  1.952843899273403  42.84929857443423  6.0062128508046655  -1.3138141830359005  141.11052330439057  3.3716827689191966  -95.39190172556623  21.066410989979584  120.000000
0.31799999999999995  0.000000  0.000000  0.000000  -26.697082915639303  5.363145812012084  1.939625746021722  42.862729460763724  5.923578407864377  -1.2927659831241023  140.26009155840865  3.40822249592918  -94.79702105892655  20.827571685646785  120.000000
0.34979999999999994  0.000000  0.000000  0.000000  -26.646697700658905  5.36128944064869  1.915646226048557  42.89049453704491  5.825510033761278  -1.2647492035701933  138.98179605298435  3.3941421099708795  -93.85328394747258  20.506557392154  120.000000
0.38159999999999994  0.000000  0.000000  0.000000  -26.605946553939493  5.350376198176708  1.879175972569947  42.929277174990595  5.708658389820501  -1.226357435436406  137.17674780878696  3.315534131160322  -92.46718830037166  20.103204028894876  120.000000
0.41339999999999993  0.000000  0.000000  0.000000  -26.57878868288007  5.340008424825355  1.8305393553636733  42.9736431877991  5.5711687079763115  -1.1754258546518739  134.62702280763608  3.159810547968831  -90.43050605183697  19.6199914223998  120.000000
0.44519999999999993  0.000000  0.000000  0.000000  -26.570758427394292  5.3403821738968436  1.7727363009245725  43.019889438034305  5.413233672552413  -1.1102642614919074  130.89281114025422  2.916680465006932  -87.31958241376094  19.063054379110678  120.000000
0.4769999999999999  0.000000  0.000000  0.000000  -26.589327889945125  5.360056669182129  1.712588193762091  43.06974890291977  5.237390988962598  -1.0281622174733802  125.08008498806088  2.5819302555973613  -82.26476608961887  18.44364320905856  120.000000
0.5087999999999999  0.000000  0.000000  0.000000  -26.64383769897763  5.40333861988753  1.6609089216202209  43.132953626377194  5.04813828763143  -0.9247426352201714  115.22618603376041  2.1699618559859433  -73.33758556355511  17.78031418629212  120.000000
0.5406  0.000000  0.000000  0.000000  -26.74567052718909  5.469566428185716  1.6320299931084608  43.22855464081006  4.852062728441542  -0.79346821759612  97.02702164081693  1.7538693464441555  -56.27493629064982  17.101073019651114  120.000000
0.5723999999999999  0.000000  0.000000  0.000000  -26.905057359947236  5.553478552074313  1.6411257352887492  43.382635033620126  4.657250520063655  -0.6263812773972252  65.11541270799485  1.571780310453669  -25.7551950409584  16.443659376436326  120.000000
0.6041999999999998  0.000000  0.000000  0.000000  -27.132655125567414  5.646263557664156  1.7026579850052215  43.62259468165043  4.473705725790597  -0.4152898003487929  30.15826515714665  1.9778057238213145  7.50876220475065  15.851638436105388  120.000000
0.6359999999999999  0.000000  0.000000  0.000000  -27.43601555507758  5.738316333853755  1.827150170121025  43.9702442460042  4.312183210021657  -0.15412184065175474  8.11760587599362  2.957411011239156  27.518274009909007  15.367549148221263  120.000000
0.6678  0.000000  0.000000  0.000000  -27.818798348157912  5.821884719247431  2.018725188446735  44.43611435615566  4.183038700142847  0.15844351416659486  -4.347638472177526  4.308743126727231  37.59990821666521  15.024517546773824  120.000000
0.6995999999999999  0.000000  0.000000  0.000000  -28.27864258982665  5.892803026712964  2.2733342809765493  45.01461639367799  4.094685807560933  0.517411719126984  -12.247265021396052  5.916976020362171  42.78164949826546  14.837626768184066  120.000000
0.7313999999999998  0.000000  0.000000  0.000000  -28.806422010141908  5.951691799206768  2.5796845784870843  45.684214349556804  4.053241542706192  0.9116349534981616  -17.88676886128891  7.714159707936659  45.4261342391914  14.800025261510621  120.000000
0.7631999999999999  0.000000  0.000000  0.000000  -29.38801088982374  6.003415701838188  2.923773502536306  46.41185547431774  4.063982562981813  1.3261944656724813  -22.24119354929285  9.642852235677768  46.59766445345344  14.885718289686032  120.000000
0.7949999999999999  0.000000  0.000000  0.000000  -30.007858069992725  6.05601656923246  3.2931574276326354  47.159297043650476  4.131875258010256  1.745087768627142  -25.718029116373387  11.64833005226886  46.81094204747066  15.056912282466481  120.000000
0.8267999999999999  0.000000  0.000000  0.000000  -30.650354199297738  6.118747821349337  3.6805735437023204  47.891466429961405  4.26185900114452  2.154003919035804  -28.49047022086255  13.67959079929136  46.34985457959668  15.27337013823275  120.000000
0.8585999999999998  0.000000  0.000000  0.000000  -31.300828179969603  6.200614503225361  4.083719943283681  48.580842209594884  4.456238885441241  2.541992841787543  -30.64324744968673  15.693419823744865  45.39696061547527  15.500865265311793  120.000000
0.8903999999999999  0.000000  0.000000  0.000000  -31.94490143045138  6.307912828387146  4.503099031345146  49.20966454870395  4.712284468250139  2.902277469464066  -32.24701391578491  17.65764808789425  44.09654660135984  15.716024425473012  120.000000
0.9221999999999999  0.000000  0.000000  0.000000  -32.56881829790992  6.443626261840783  4.938989206647304  49.76920043629986  5.020486845467579  3.2322781592828966  -33.38793380195891  19.552277305988166  42.57904881160053  15.907496768861082  120.000000
0.9539999999999998  0.000000  0.000000  0.000000  -33.159636591039366  6.607137769011176  5.389646666046512  50.25809838214555  5.365464243247165  3.5331126820454135  -34.171850697493255  21.3679228143589  40.96618962606525  16.07348790923773  120.000000
0.9857999999999998  0.000000  0.000000  0.000000  -33.707438806154414  6.7950014170807105  5.851260431272913  50.680563768150925  5.7290008854089916  3.8082250700253297  -34.71370183580147  23.102884391190802  39.36401741019247  16.21868761381821  120.000000
1.0175999999999998  0.000000  0.000000  0.000000  -34.20759937371429  7.001895785642374  6.319898487954459  51.04523184022654  6.094400204188195  4.06228748952884  -35.12153028188441  24.759424646781916  37.85185505997746  16.351884303575396  120.000000
1.0493999999999999  0.000000  0.000000  0.000000  -34.66359169070626  7.2214184346224926  6.794056905484015  51.364421189169995  6.45052165802094  4.299949269259253  -35.482269631303055  26.341394692335257  36.472871084069  16.48423229841647  120.000000
1.0812  0.000000  0.000000  0.000000  -35.086076307019866  7.446227388473587  7.276042648988056  51.653242479503774  6.793823290667719  4.5251108850060735  -35.85536913082932  27.853402406730023  35.232846193835094  16.628204437191886  120.000000
1.1129999999999998  0.000000  0.000000  0.000000  -35.492739201582694  7.668230908806928  7.772333334126365  51.92903892051265  7.128199272533987  4.740882352393998  -36.27446676747344  29.300673032959114  34.1073839719343  16.796099287678395  120.000000
1.1447999999999998  0.000000  0.000000  0.000000  -35.90313215671352  7.8786322830484945  8.291362205440162  52.20927811243012  7.462502759621237  4.949765609750808  -36.753085974468505  30.69002944307861  33.052766410083315  16.999114367227495  120.000000
1.1765999999999999  0.000000  0.000000  0.000000  -36.336834983126145  8.068218441673567  8.842229309842605  52.510647386576395  7.808593533934803  5.153799006449429  -37.2918049243454  32.02980978154147  32.0189375923661  17.246545418598078  120.000000
1.2083999999999997  0.000000  0.000000  0.000000  -36.80807954843862  8.228263614365087  9.432077707626778  52.84676914724502  8.178559488510047  5.354845462273377  -37.884011254736826  33.33010871083245  30.95958080490682  17.545361157742107  120.000000
1.2401999999999997  0.000000  0.000000  0.000000  -37.32475592016486  8.35164670294589  10.065347872231428  53.226819350269764  8.583332694085039  5.554481160987491  -38.520468670635665  34.60120146691282  29.840491420299827  17.89966065522154  120.000000
1.2719999999999998  0.000000  0.000000  0.000000  -37.886108299977685  8.433928833097042  10.742712973276127  53.653812992583354  9.031161935587534  5.753980988702176  -39.191243440154764  35.85182935013256  28.643736599746543  18.310585355000956  120.000000
1.3037999999999998  0.000000  0.000000  0.000000  -38.48323087862952  8.474766804039993  11.461304835352058  54.12333962990272  9.526474982690418  5.95425170634447  -39.88646894485459  37.0870458522072  27.369944371560738  18.775531958734003  120.000000
1.3356  0.000000  0.000000  0.000000  -39.09928646605562  8.477979763927637  12.21475698478727  54.6235579820924  10.068723986122295  6.15610448598845  -40.59546152455479  38.30695092285707  26.038788159869952  19.286385348043094  120.000000
